<svg width="125" height="30" viewBox="0 0 125 30" fill="none" xmlns="http://www.w3.org/2000/svg">
<ellipse cx="25.6667" cy="4.21348" rx="4.16667" ry="4.21348" fill="black"/>
<ellipse cx="34" cy="9.60673" rx="4.16667" ry="4.21348" fill="black"/>
<ellipse cx="42.3333" cy="15" rx="4.16667" ry="4.21348" fill="black"/>
<ellipse cx="34" cy="19.382" rx="4.16667" ry="4.21348" fill="black"/>
<ellipse cx="25.6667" cy="15" rx="4.16667" ry="4.21348" fill="black"/>
<ellipse cx="25.6667" cy="25.7865" rx="4.16667" ry="4.21348" fill="black"/>
<path d="M55.25 19.5H52.5568V10.7727H55.3693C56.2159 10.7727 56.9403 10.9474 57.5426 11.2969C58.1449 11.6435 58.6065 12.142 58.9276 12.7926C59.2486 13.4403 59.4091 14.2159 59.4091 15.1193C59.4091 16.0284 59.2472 16.8111 58.9233 17.4673C58.5994 18.1207 58.1278 18.6236 57.5085 18.9759C56.8892 19.3253 56.1364 19.5 55.25 19.5ZM53.6136 18.5625H55.1818C55.9034 18.5625 56.5014 18.4233 56.9759 18.1449C57.4503 17.8665 57.804 17.4702 58.0369 16.956C58.2699 16.4418 58.3864 15.8295 58.3864 15.1193C58.3864 14.4148 58.2713 13.8082 58.0412 13.2997C57.8111 12.7884 57.4673 12.3963 57.0099 12.1236C56.5526 11.848 55.983 11.7102 55.3011 11.7102H53.6136V18.5625ZM62.9716 19.6534C62.5568 19.6534 62.1804 19.5753 61.8423 19.419C61.5043 19.2599 61.2358 19.0312 61.0369 18.733C60.8381 18.4318 60.7386 18.0682 60.7386 17.642C60.7386 17.267 60.8125 16.9631 60.9602 16.7301C61.108 16.4943 61.3054 16.3097 61.5526 16.1761C61.7997 16.0426 62.0724 15.9432 62.3707 15.8778C62.6719 15.8097 62.9744 15.7557 63.2784 15.7159C63.6761 15.6648 63.9986 15.6264 64.2457 15.6009C64.4957 15.5724 64.6776 15.5256 64.7912 15.4602C64.9077 15.3949 64.9659 15.2812 64.9659 15.1193V15.0852C64.9659 14.6648 64.8509 14.3381 64.6207 14.1051C64.3935 13.8722 64.0483 13.7557 63.5852 13.7557C63.1051 13.7557 62.7287 13.8608 62.456 14.071C62.1832 14.2812 61.9915 14.5057 61.8807 14.7443L60.9261 14.4034C61.0966 14.0057 61.3239 13.696 61.608 13.4744C61.8949 13.25 62.2074 13.0937 62.5455 13.0057C62.8864 12.9148 63.2216 12.8693 63.5511 12.8693C63.7614 12.8693 64.0028 12.8949 64.2756 12.946C64.5511 12.9943 64.8168 13.0952 65.0724 13.2486C65.331 13.402 65.5455 13.6335 65.7159 13.9432C65.8864 14.2528 65.9716 14.6676 65.9716 15.1875V19.5H64.9659V18.6136H64.9148C64.8466 18.7557 64.733 18.9077 64.5739 19.0696C64.4148 19.2315 64.2031 19.3693 63.9389 19.483C63.6747 19.5966 63.3523 19.6534 62.9716 19.6534ZM63.125 18.75C63.5227 18.75 63.858 18.6719 64.1307 18.5156C64.4063 18.3594 64.6136 18.1577 64.7528 17.9105C64.8949 17.6634 64.9659 17.4034 64.9659 17.1307V16.2102C64.9233 16.2614 64.8295 16.3082 64.6847 16.3509C64.5426 16.3906 64.3778 16.4261 64.1903 16.4574C64.0057 16.4858 63.8253 16.5114 63.6491 16.5341C63.4759 16.554 63.3352 16.571 63.2273 16.5852C62.9659 16.6193 62.7216 16.6747 62.4943 16.7514C62.2699 16.8253 62.0881 16.9375 61.9489 17.0881C61.8125 17.2358 61.7443 17.4375 61.7443 17.6932C61.7443 18.0426 61.8736 18.3068 62.1321 18.4858C62.3935 18.6619 62.7244 18.75 63.125 18.75ZM70.6538 12.9545V13.8068H67.2617V12.9545H70.6538ZM68.2504 11.3864H69.256V17.625C69.256 17.9091 69.2972 18.1222 69.3796 18.2642C69.4648 18.4034 69.5728 18.4972 69.7035 18.5455C69.837 18.5909 69.9776 18.6136 70.1254 18.6136C70.2362 18.6136 70.3271 18.608 70.3981 18.5966C70.4691 18.5824 70.5259 18.571 70.5685 18.5625L70.7731 19.4659C70.7049 19.4915 70.6097 19.517 70.4876 19.5426C70.3654 19.571 70.2106 19.5852 70.0231 19.5852C69.739 19.5852 69.4606 19.5241 69.1879 19.402C68.918 19.2798 68.6935 19.0938 68.5146 18.8438C68.3384 18.5938 68.2504 18.2784 68.2504 17.8977V11.3864ZM74.0927 19.6534C73.6779 19.6534 73.3015 19.5753 72.9634 19.419C72.6254 19.2599 72.3569 19.0312 72.158 18.733C71.9592 18.4318 71.8597 18.0682 71.8597 17.642C71.8597 17.267 71.9336 16.9631 72.0813 16.7301C72.229 16.4943 72.4265 16.3097 72.6737 16.1761C72.9208 16.0426 73.1935 15.9432 73.4918 15.8778C73.793 15.8097 74.0955 15.7557 74.3995 15.7159C74.7972 15.6648 75.1197 15.6264 75.3668 15.6009C75.6168 15.5724 75.7987 15.5256 75.9123 15.4602C76.0288 15.3949 76.087 15.2812 76.087 15.1193V15.0852C76.087 14.6648 75.9719 14.3381 75.7418 14.1051C75.5146 13.8722 75.1694 13.7557 74.7063 13.7557C74.2262 13.7557 73.8498 13.8608 73.5771 14.071C73.3043 14.2812 73.1126 14.5057 73.0018 14.7443L72.0472 14.4034C72.2177 14.0057 72.445 13.696 72.729 13.4744C73.016 13.25 73.3285 13.0937 73.6665 13.0057C74.0075 12.9148 74.3427 12.8693 74.6722 12.8693C74.8825 12.8693 75.1239 12.8949 75.3967 12.946C75.6722 12.9943 75.9379 13.0952 76.1935 13.2486C76.4521 13.402 76.6665 13.6335 76.837 13.9432C77.0075 14.2528 77.0927 14.6676 77.0927 15.1875V19.5H76.087V18.6136H76.0359C75.9677 18.7557 75.854 18.9077 75.695 19.0696C75.5359 19.2315 75.3242 19.3693 75.06 19.483C74.7958 19.5966 74.4734 19.6534 74.0927 19.6534ZM74.2461 18.75C74.6438 18.75 74.979 18.6719 75.2518 18.5156C75.5273 18.3594 75.7347 18.1577 75.8739 17.9105C76.016 17.6634 76.087 17.4034 76.087 17.1307V16.2102C76.0444 16.2614 75.9506 16.3082 75.8058 16.3509C75.6637 16.3906 75.4989 16.4261 75.3114 16.4574C75.1268 16.4858 74.9464 16.5114 74.7702 16.5341C74.5969 16.554 74.4563 16.571 74.3484 16.5852C74.087 16.6193 73.8427 16.6747 73.6154 16.7514C73.391 16.8253 73.2092 16.9375 73.07 17.0881C72.9336 17.2358 72.8654 17.4375 72.8654 17.6932C72.8654 18.0426 72.9947 18.3068 73.2532 18.4858C73.5146 18.6619 73.8455 18.75 74.2461 18.75ZM79.0646 10.7727H80.326L83.2919 18.017H83.3942L86.3601 10.7727H87.6214V19.5H86.6328V12.8693H86.5476L83.8203 19.5H82.8658L80.1385 12.8693H80.0533V19.5H79.0646V10.7727ZM91.5302 19.6534C91.1154 19.6534 90.739 19.5753 90.4009 19.419C90.0629 19.2599 89.7944 19.0312 89.5955 18.733C89.3967 18.4318 89.2972 18.0682 89.2972 17.642C89.2972 17.267 89.3711 16.9631 89.5188 16.7301C89.6665 16.4943 89.864 16.3097 90.1112 16.1761C90.3583 16.0426 90.631 15.9432 90.9293 15.8778C91.2305 15.8097 91.533 15.7557 91.837 15.7159C92.2347 15.6648 92.5572 15.6264 92.8043 15.6009C93.0543 15.5724 93.2362 15.5256 93.3498 15.4602C93.4663 15.3949 93.5245 15.2812 93.5245 15.1193V15.0852C93.5245 14.6648 93.4094 14.3381 93.1793 14.1051C92.9521 13.8722 92.6069 13.7557 92.1438 13.7557C91.6637 13.7557 91.2873 13.8608 91.0146 14.071C90.7418 14.2812 90.5501 14.5057 90.4393 14.7443L89.4847 14.4034C89.6552 14.0057 89.8825 13.696 90.1665 13.4744C90.4535 13.25 90.766 13.0937 91.104 13.0057C91.445 12.9148 91.7802 12.8693 92.1097 12.8693C92.32 12.8693 92.5614 12.8949 92.8342 12.946C93.1097 12.9943 93.3754 13.0952 93.631 13.2486C93.8896 13.402 94.104 13.6335 94.2745 13.9432C94.445 14.2528 94.5302 14.6676 94.5302 15.1875V19.5H93.5245V18.6136H93.4734C93.4052 18.7557 93.2915 18.9077 93.1325 19.0696C92.9734 19.2315 92.7617 19.3693 92.4975 19.483C92.2333 19.5966 91.9109 19.6534 91.5302 19.6534ZM91.6836 18.75C92.0813 18.75 92.4165 18.6719 92.6893 18.5156C92.9648 18.3594 93.1722 18.1577 93.3114 17.9105C93.4535 17.6634 93.5245 17.4034 93.5245 17.1307V16.2102C93.4819 16.2614 93.3881 16.3082 93.2433 16.3509C93.1012 16.3906 92.9364 16.4261 92.7489 16.4574C92.5643 16.4858 92.3839 16.5114 92.2077 16.5341C92.0344 16.554 91.8938 16.571 91.7859 16.5852C91.5245 16.6193 91.2802 16.6747 91.0529 16.7514C90.8285 16.8253 90.6467 16.9375 90.5075 17.0881C90.3711 17.2358 90.3029 17.4375 90.3029 17.6932C90.3029 18.0426 90.4322 18.3068 90.6907 18.4858C90.9521 18.6619 91.283 18.75 91.6836 18.75ZM96.3658 21.9545V12.9545H97.3374V13.9943H97.4567C97.5305 13.8807 97.6328 13.7358 97.7635 13.5597C97.897 13.3807 98.0874 13.2216 98.3345 13.0824C98.5845 12.9403 98.9226 12.8693 99.3487 12.8693C99.8999 12.8693 100.386 13.0071 100.806 13.2827C101.227 13.5582 101.555 13.9489 101.79 14.4545C102.026 14.9602 102.144 15.5568 102.144 16.2443C102.144 16.9375 102.026 17.5384 101.79 18.0469C101.555 18.5526 101.228 18.9446 100.81 19.223C100.393 19.4986 99.9112 19.6364 99.3658 19.6364C98.9453 19.6364 98.6087 19.5668 98.3558 19.4276C98.103 19.2855 97.9084 19.125 97.772 18.946C97.6357 18.7642 97.5305 18.6136 97.4567 18.4943H97.3714V21.9545H96.3658ZM97.3544 16.2273C97.3544 16.7216 97.4268 17.1577 97.5717 17.5355C97.7166 17.9105 97.9283 18.2045 98.2067 18.4176C98.4851 18.6278 98.826 18.733 99.2294 18.733C99.6499 18.733 100.001 18.6222 100.282 18.4006C100.566 18.1761 100.779 17.875 100.921 17.4972C101.066 17.1165 101.138 16.6932 101.138 16.2273C101.138 15.767 101.067 15.3523 100.925 14.983C100.786 14.6108 100.575 14.3168 100.29 14.1009C100.009 13.8821 99.6555 13.7727 99.2294 13.7727C98.8203 13.7727 98.4766 13.8764 98.1982 14.0838C97.9197 14.2884 97.7095 14.5753 97.5675 14.9446C97.4254 15.3111 97.3544 15.7386 97.3544 16.2273Z" fill="black"/>
</svg>
