<svg width="125" height="30" viewBox="0 0 125 30" fill="none" xmlns="http://www.w3.org/2000/svg">
<ellipse cx="23.1667" cy="4.21348" rx="4.16667" ry="4.21348" fill="black"/>
<ellipse cx="31.5" cy="9.60673" rx="4.16667" ry="4.21348" fill="black"/>
<ellipse cx="39.8333" cy="15" rx="4.16667" ry="4.21348" fill="black"/>
<ellipse cx="31.5" cy="19.382" rx="4.16667" ry="4.21348" fill="black"/>
<ellipse cx="23.1667" cy="15" rx="4.16667" ry="4.21348" fill="black"/>
<ellipse cx="23.1667" cy="25.7865" rx="4.16667" ry="4.21348" fill="black"/>
<path d="M50.0568 19.5V10.7727H53.0057C53.6903 10.7727 54.25 10.8963 54.6847 11.1435C55.1222 11.3878 55.446 11.7188 55.6562 12.1364C55.8665 12.554 55.9716 13.0199 55.9716 13.5341C55.9716 14.0483 55.8665 14.5156 55.6562 14.9361C55.4489 15.3565 55.1278 15.6918 54.6932 15.9418C54.2585 16.1889 53.7017 16.3125 53.0227 16.3125H50.9091V15.375H52.9886C53.4574 15.375 53.8338 15.294 54.1179 15.1321C54.402 14.9702 54.608 14.7514 54.7358 14.4759C54.8665 14.1974 54.9318 13.8835 54.9318 13.5341C54.9318 13.1847 54.8665 12.8722 54.7358 12.5966C54.608 12.321 54.4006 12.1051 54.1136 11.9489C53.8267 11.7898 53.446 11.7102 52.9716 11.7102H51.1136V19.5H50.0568ZM65.0376 15.1364C65.0376 16.0568 64.8714 16.8523 64.5391 17.5227C64.2067 18.1932 63.7507 18.7102 63.1712 19.0739C62.5916 19.4375 61.9297 19.6193 61.1854 19.6193C60.4411 19.6193 59.7791 19.4375 59.1996 19.0739C58.62 18.7102 58.1641 18.1932 57.8317 17.5227C57.4993 16.8523 57.3331 16.0568 57.3331 15.1364C57.3331 14.2159 57.4993 13.4205 57.8317 12.75C58.1641 12.0795 58.62 11.5625 59.1996 11.1989C59.7791 10.8352 60.4411 10.6534 61.1854 10.6534C61.9297 10.6534 62.5916 10.8352 63.1712 11.1989C63.7507 11.5625 64.2067 12.0795 64.5391 12.75C64.8714 13.4205 65.0376 14.2159 65.0376 15.1364ZM64.0149 15.1364C64.0149 14.3807 63.8885 13.7429 63.6357 13.223C63.3857 12.7031 63.0462 12.3097 62.6172 12.0426C62.1911 11.7756 61.7138 11.642 61.1854 11.642C60.657 11.642 60.1783 11.7756 59.7493 12.0426C59.3232 12.3097 58.9837 12.7031 58.7308 13.223C58.4808 13.7429 58.3558 14.3807 58.3558 15.1364C58.3558 15.892 58.4808 16.5298 58.7308 17.0497C58.9837 17.5696 59.3232 17.9631 59.7493 18.2301C60.1783 18.4972 60.657 18.6307 61.1854 18.6307C61.7138 18.6307 62.1911 18.4972 62.6172 18.2301C63.0462 17.9631 63.3857 17.5696 63.6357 17.0497C63.8885 16.5298 64.0149 15.892 64.0149 15.1364ZM66.8146 19.5V10.7727H67.8714V18.5625H71.9283V19.5H66.8146ZM74.6214 10.7727V19.5H73.5646V10.7727H74.6214ZM79.4336 19.5H76.7404V10.7727H79.5529C80.3995 10.7727 81.1239 10.9474 81.7262 11.2969C82.3285 11.6435 82.7901 12.142 83.1112 12.7926C83.4322 13.4403 83.5927 14.2159 83.5927 15.1193C83.5927 16.0284 83.4308 16.8111 83.1069 17.4673C82.783 18.1207 82.3114 18.6236 81.6921 18.9759C81.0728 19.3253 80.32 19.5 79.4336 19.5ZM77.7972 18.5625H79.3654C80.087 18.5625 80.685 18.4233 81.1594 18.1449C81.6339 17.8665 81.9876 17.4702 82.2205 16.956C82.4535 16.4418 82.57 15.8295 82.57 15.1193C82.57 14.4148 82.4549 13.8082 82.2248 13.2997C81.9947 12.7884 81.6509 12.3963 81.1935 12.1236C80.7362 11.848 80.1665 11.7102 79.4847 11.7102H77.7972V18.5625ZM85.3132 19.5H84.2053L87.4098 10.7727H88.5007L91.7053 19.5H90.5973L87.9893 12.1534H87.9212L85.3132 19.5ZM85.7223 16.0909H90.1882V17.0284H85.7223V16.0909ZM91.5678 11.7102V10.7727H98.1133V11.7102H95.369V19.5H94.3121V11.7102H91.5678ZM99.0827 19.5H97.9748L101.179 10.7727H102.27L105.475 19.5H104.367L101.759 12.1534H101.691L99.0827 19.5ZM99.4918 16.0909H103.958V17.0284H99.4918V16.0909Z" fill="black"/>
</svg>
