<svg width="327" height="327" viewBox="0 0 327 327" fill="none" xmlns="http://www.w3.org/2000/svg">
<path d="M326.072 0H0.0955568C0.0427823 0 0 0.0427823 0 0.0955568V326.072C0 326.125 0.0427823 326.167 0.0955568 326.167H326.072C326.125 326.167 326.167 326.125 326.167 326.072V0.0955568C326.167 0.0427823 326.125 0 326.072 0Z" fill="white"/>
<path d="M163.084 326.167C253.152 326.167 326.167 253.152 326.167 163.084C326.167 73.015 253.152 0 163.084 0C73.015 0 0 73.015 0 163.084C0 253.152 73.015 326.167 163.084 326.167Z" fill="#A6CE39"/>
<path d="M110.209 236.981H90.4605V100.653H110.209V236.981ZM138.876 100.653H191.751C242.077 100.653 264.374 136.965 264.374 168.817C264.374 203.855 236.981 236.981 191.751 236.981H138.239L138.876 100.653ZM158.624 219.781H189.84C234.433 219.781 244.626 186.017 244.626 169.454C244.626 142.061 227.425 119.128 189.203 119.128H159.261L158.624 219.781ZM113.394 72.6232C113.394 79.6307 107.661 85.3641 100.653 85.3641C93.6458 85.3641 87.9124 79.6307 87.9124 72.6232C87.9124 69.2441 89.2547 66.0034 91.6441 63.614C94.0335 61.2246 97.2742 59.8823 100.653 59.8823C107.661 59.8823 113.394 65.6157 113.394 72.6232Z" fill="white"/>
</svg>
